<mxfile host="app.diagrams.net" modified="2023-12-26T13:54:39.930Z" agent="Mozilla/5.0 (Macintosh; Intel Mac OS X 10_15_7) AppleWebKit/605.1.15 (KHTML, like Gecko) Version/17.0 Safari/605.1.15" etag="JIsnwd8VfFKDZQuRwokm" version="22.1.11" type="device">
  <diagram name="Page-1" id="KbigeE1vw1PCUcF9p_9e">
    <mxGraphModel dx="1162" dy="404" grid="0" gridSize="10" guides="1" tooltips="1" connect="1" arrows="1" fold="1" page="0" pageScale="1" pageWidth="827" pageHeight="1169" math="0" shadow="0">
      <root>
        <mxCell id="0" />
        <mxCell id="1" parent="0" />
        <mxCell id="kelY_Fj9Jdq7wEPftPaH-45" style="edgeStyle=none;curved=1;rounded=0;sketch=1;hachureGap=4;jiggle=2;curveFitting=1;orthogonalLoop=1;jettySize=auto;html=1;entryX=0.5;entryY=1;entryDx=0;entryDy=0;fontFamily=Architects Daughter;fontSource=https%3A%2F%2Ffonts.googleapis.com%2Fcss%3Ffamily%3DArchitects%2BDaughter;fontSize=16;startSize=8;endSize=8;" parent="1" source="kelY_Fj9Jdq7wEPftPaH-14" target="kelY_Fj9Jdq7wEPftPaH-43" edge="1">
          <mxGeometry relative="1" as="geometry" />
        </mxCell>
        <mxCell id="kelY_Fj9Jdq7wEPftPaH-46" style="edgeStyle=none;curved=1;rounded=0;sketch=1;hachureGap=4;jiggle=2;curveFitting=1;orthogonalLoop=1;jettySize=auto;html=1;entryX=0.5;entryY=1;entryDx=0;entryDy=0;fontFamily=Architects Daughter;fontSource=https%3A%2F%2Ffonts.googleapis.com%2Fcss%3Ffamily%3DArchitects%2BDaughter;fontSize=16;startSize=8;endSize=8;" parent="1" source="kelY_Fj9Jdq7wEPftPaH-14" target="kelY_Fj9Jdq7wEPftPaH-44" edge="1">
          <mxGeometry relative="1" as="geometry" />
        </mxCell>
        <mxCell id="kelY_Fj9Jdq7wEPftPaH-14" value="LoadBalancer" style="rounded=0;whiteSpace=wrap;html=1;sketch=1;hachureGap=4;jiggle=2;curveFitting=1;fontFamily=Architects Daughter;fontSource=https%3A%2F%2Ffonts.googleapis.com%2Fcss%3Ffamily%3DArchitects%2BDaughter;fontSize=20;" parent="1" vertex="1">
          <mxGeometry x="130.5" y="596" width="147" height="60" as="geometry" />
        </mxCell>
        <mxCell id="kelY_Fj9Jdq7wEPftPaH-23" style="edgeStyle=none;curved=1;rounded=0;sketch=1;hachureGap=4;jiggle=2;curveFitting=1;orthogonalLoop=1;jettySize=auto;html=1;exitX=0.5;exitY=0;exitDx=0;exitDy=0;fontFamily=Architects Daughter;fontSource=https%3A%2F%2Ffonts.googleapis.com%2Fcss%3Ffamily%3DArchitects%2BDaughter;fontSize=16;startSize=8;endSize=8;" parent="1" source="kelY_Fj9Jdq7wEPftPaH-14" target="kelY_Fj9Jdq7wEPftPaH-14" edge="1">
          <mxGeometry relative="1" as="geometry" />
        </mxCell>
        <mxCell id="kelY_Fj9Jdq7wEPftPaH-8" value="DB Host (MultiAZ)" style="shape=cylinder3;whiteSpace=wrap;html=1;boundedLbl=1;backgroundOutline=1;size=15;sketch=1;hachureGap=4;jiggle=2;curveFitting=1;fontFamily=Architects Daughter;fontSource=https%3A%2F%2Ffonts.googleapis.com%2Fcss%3Ffamily%3DArchitects%2BDaughter;fontSize=20;" parent="1" vertex="1">
          <mxGeometry x="136" y="262" width="136" height="124" as="geometry" />
        </mxCell>
        <mxCell id="kelY_Fj9Jdq7wEPftPaH-58" style="edgeStyle=none;curved=1;rounded=0;sketch=1;hachureGap=4;jiggle=2;curveFitting=1;orthogonalLoop=1;jettySize=auto;html=1;entryX=0.5;entryY=1;entryDx=0;entryDy=0;fontFamily=Architects Daughter;fontSource=https%3A%2F%2Ffonts.googleapis.com%2Fcss%3Ffamily%3DArchitects%2BDaughter;fontSize=16;startSize=8;endSize=8;" parent="1" source="kelY_Fj9Jdq7wEPftPaH-43" target="kelY_Fj9Jdq7wEPftPaH-52" edge="1">
          <mxGeometry relative="1" as="geometry" />
        </mxCell>
        <mxCell id="kelY_Fj9Jdq7wEPftPaH-43" value="target group" style="rounded=0;whiteSpace=wrap;html=1;sketch=1;hachureGap=4;jiggle=2;curveFitting=1;fontFamily=Architects Daughter;fontSource=https%3A%2F%2Ffonts.googleapis.com%2Fcss%3Ffamily%3DArchitects%2BDaughter;fontSize=20;" parent="1" vertex="1">
          <mxGeometry x="-131" y="511" width="120" height="60" as="geometry" />
        </mxCell>
        <mxCell id="kelY_Fj9Jdq7wEPftPaH-59" style="edgeStyle=none;curved=1;rounded=0;sketch=1;hachureGap=4;jiggle=2;curveFitting=1;orthogonalLoop=1;jettySize=auto;html=1;entryX=0.5;entryY=1;entryDx=0;entryDy=0;fontFamily=Architects Daughter;fontSource=https%3A%2F%2Ffonts.googleapis.com%2Fcss%3Ffamily%3DArchitects%2BDaughter;fontSize=16;startSize=8;endSize=8;" parent="1" source="kelY_Fj9Jdq7wEPftPaH-44" target="kelY_Fj9Jdq7wEPftPaH-55" edge="1">
          <mxGeometry relative="1" as="geometry" />
        </mxCell>
        <mxCell id="kelY_Fj9Jdq7wEPftPaH-44" value="target group" style="rounded=0;whiteSpace=wrap;html=1;sketch=1;hachureGap=4;jiggle=2;curveFitting=1;fontFamily=Architects Daughter;fontSource=https%3A%2F%2Ffonts.googleapis.com%2Fcss%3Ffamily%3DArchitects%2BDaughter;fontSize=20;" parent="1" vertex="1">
          <mxGeometry x="439.5" y="511" width="120" height="60" as="geometry" />
        </mxCell>
        <mxCell id="kelY_Fj9Jdq7wEPftPaH-48" value="Availability Zone 1" style="swimlane;whiteSpace=wrap;html=1;sketch=1;hachureGap=4;jiggle=2;curveFitting=1;fontFamily=Architects Daughter;fontSource=https%3A%2F%2Ffonts.googleapis.com%2Fcss%3Ffamily%3DArchitects%2BDaughter;fontSize=20;" parent="1" vertex="1">
          <mxGeometry x="-238" y="140" width="334" height="340" as="geometry" />
        </mxCell>
        <mxCell id="kelY_Fj9Jdq7wEPftPaH-52" value="Cluster" style="swimlane;whiteSpace=wrap;html=1;sketch=1;hachureGap=4;jiggle=2;curveFitting=1;fontFamily=Architects Daughter;fontSource=https%3A%2F%2Ffonts.googleapis.com%2Fcss%3Ffamily%3DArchitects%2BDaughter;fontSize=20;" parent="kelY_Fj9Jdq7wEPftPaH-48" vertex="1">
          <mxGeometry x="45" y="99" width="244" height="170" as="geometry" />
        </mxCell>
        <mxCell id="kelY_Fj9Jdq7wEPftPaH-56" value="Backend APPS" style="rounded=0;whiteSpace=wrap;html=1;sketch=1;hachureGap=4;jiggle=2;curveFitting=1;fontFamily=Architects Daughter;fontSource=https%3A%2F%2Ffonts.googleapis.com%2Fcss%3Ffamily%3DArchitects%2BDaughter;fontSize=20;" parent="kelY_Fj9Jdq7wEPftPaH-52" vertex="1">
          <mxGeometry x="62" y="55" width="120" height="60" as="geometry" />
        </mxCell>
        <mxCell id="kelY_Fj9Jdq7wEPftPaH-54" value="Availability Zone 2" style="swimlane;whiteSpace=wrap;html=1;sketch=1;hachureGap=4;jiggle=2;curveFitting=1;fontFamily=Architects Daughter;fontSource=https%3A%2F%2Ffonts.googleapis.com%2Fcss%3Ffamily%3DArchitects%2BDaughter;fontSize=20;" parent="1" vertex="1">
          <mxGeometry x="329" y="141" width="336" height="344" as="geometry" />
        </mxCell>
        <mxCell id="kelY_Fj9Jdq7wEPftPaH-55" value="Cluster" style="swimlane;whiteSpace=wrap;html=1;sketch=1;hachureGap=4;jiggle=2;curveFitting=1;fontFamily=Architects Daughter;fontSource=https%3A%2F%2Ffonts.googleapis.com%2Fcss%3Ffamily%3DArchitects%2BDaughter;fontSize=20;" parent="kelY_Fj9Jdq7wEPftPaH-54" vertex="1">
          <mxGeometry x="48" y="98" width="245" height="181" as="geometry" />
        </mxCell>
        <mxCell id="kelY_Fj9Jdq7wEPftPaH-57" value="Backend APPS" style="rounded=0;whiteSpace=wrap;html=1;sketch=1;hachureGap=4;jiggle=2;curveFitting=1;fontFamily=Architects Daughter;fontSource=https%3A%2F%2Ffonts.googleapis.com%2Fcss%3Ffamily%3DArchitects%2BDaughter;fontSize=20;" parent="kelY_Fj9Jdq7wEPftPaH-55" vertex="1">
          <mxGeometry x="62.5" y="56" width="120" height="60" as="geometry" />
        </mxCell>
        <mxCell id="kelY_Fj9Jdq7wEPftPaH-61" style="edgeStyle=none;curved=1;rounded=0;sketch=1;hachureGap=4;jiggle=2;curveFitting=1;orthogonalLoop=1;jettySize=auto;html=1;entryX=0.5;entryY=1;entryDx=0;entryDy=0;fontFamily=Architects Daughter;fontSource=https%3A%2F%2Ffonts.googleapis.com%2Fcss%3Ffamily%3DArchitects%2BDaughter;fontSize=16;startSize=8;endSize=8;" parent="1" source="kelY_Fj9Jdq7wEPftPaH-60" target="kelY_Fj9Jdq7wEPftPaH-14" edge="1">
          <mxGeometry relative="1" as="geometry" />
        </mxCell>
        <mxCell id="kelY_Fj9Jdq7wEPftPaH-60" value="API GW" style="rounded=0;whiteSpace=wrap;html=1;sketch=1;hachureGap=4;jiggle=2;curveFitting=1;fontFamily=Architects Daughter;fontSource=https%3A%2F%2Ffonts.googleapis.com%2Fcss%3Ffamily%3DArchitects%2BDaughter;fontSize=20;" parent="1" vertex="1">
          <mxGeometry x="144" y="722" width="120" height="60" as="geometry" />
        </mxCell>
        <mxCell id="kelY_Fj9Jdq7wEPftPaH-63" style="edgeStyle=none;curved=1;rounded=0;sketch=1;hachureGap=4;jiggle=2;curveFitting=1;orthogonalLoop=1;jettySize=auto;html=1;fontFamily=Architects Daughter;fontSource=https%3A%2F%2Ffonts.googleapis.com%2Fcss%3Ffamily%3DArchitects%2BDaughter;fontSize=16;startSize=8;endSize=8;" parent="1" source="kelY_Fj9Jdq7wEPftPaH-57" target="kelY_Fj9Jdq7wEPftPaH-8" edge="1">
          <mxGeometry relative="1" as="geometry" />
        </mxCell>
        <mxCell id="kelY_Fj9Jdq7wEPftPaH-64" style="edgeStyle=none;curved=1;rounded=0;sketch=1;hachureGap=4;jiggle=2;curveFitting=1;orthogonalLoop=1;jettySize=auto;html=1;fontFamily=Architects Daughter;fontSource=https%3A%2F%2Ffonts.googleapis.com%2Fcss%3Ffamily%3DArchitects%2BDaughter;fontSize=16;startSize=8;endSize=8;" parent="1" source="kelY_Fj9Jdq7wEPftPaH-56" target="kelY_Fj9Jdq7wEPftPaH-8" edge="1">
          <mxGeometry relative="1" as="geometry" />
        </mxCell>
        <mxCell id="kelY_Fj9Jdq7wEPftPaH-70" value="A Simple Scooter Renting Solution with MultiAZ infrastructure" style="text;html=1;align=center;verticalAlign=middle;resizable=0;points=[];autosize=1;strokeColor=none;fillColor=none;fontSize=20;fontFamily=Architects Daughter;" parent="1" vertex="1">
          <mxGeometry x="-204" y="74" width="603" height="36" as="geometry" />
        </mxCell>
        <mxCell id="Y6TcZ-EqyhL7VvHh9IKG-1" value="Backend Apps" style="swimlane;whiteSpace=wrap;html=1;sketch=1;hachureGap=4;jiggle=2;curveFitting=1;fontFamily=Architects Daughter;fontSource=https%3A%2F%2Ffonts.googleapis.com%2Fcss%3Ffamily%3DArchitects%2BDaughter;fontSize=20;" parent="1" vertex="1">
          <mxGeometry x="713" y="138" width="570" height="361" as="geometry" />
        </mxCell>
        <mxCell id="Y6TcZ-EqyhL7VvHh9IKG-3" value="Payment App" style="rounded=0;whiteSpace=wrap;html=1;sketch=1;hachureGap=4;jiggle=2;curveFitting=1;fontFamily=Architects Daughter;fontSource=https%3A%2F%2Ffonts.googleapis.com%2Fcss%3Ffamily%3DArchitects%2BDaughter;fontSize=20;" parent="Y6TcZ-EqyhL7VvHh9IKG-1" vertex="1">
          <mxGeometry x="228" y="80" width="120" height="80" as="geometry" />
        </mxCell>
        <mxCell id="Y6TcZ-EqyhL7VvHh9IKG-5" value="Kernel App" style="rounded=0;whiteSpace=wrap;html=1;sketch=1;hachureGap=4;jiggle=2;curveFitting=1;fontFamily=Architects Daughter;fontSource=https%3A%2F%2Ffonts.googleapis.com%2Fcss%3Ffamily%3DArchitects%2BDaughter;fontSize=20;" parent="Y6TcZ-EqyhL7VvHh9IKG-1" vertex="1">
          <mxGeometry x="414" y="77" width="120" height="80" as="geometry" />
        </mxCell>
        <mxCell id="Y6TcZ-EqyhL7VvHh9IKG-11" value="Keycloak" style="rounded=0;whiteSpace=wrap;html=1;sketch=1;hachureGap=4;jiggle=2;curveFitting=1;fontFamily=Architects Daughter;fontSource=https%3A%2F%2Ffonts.googleapis.com%2Fcss%3Ffamily%3DArchitects%2BDaughter;fontSize=20;" parent="Y6TcZ-EqyhL7VvHh9IKG-1" vertex="1">
          <mxGeometry x="43" y="78" width="120" height="79" as="geometry" />
        </mxCell>
        <mxCell id="IVwbU-JVH3mQhV7LAEjL-3" value="Email App" style="rounded=0;whiteSpace=wrap;html=1;sketch=1;hachureGap=4;jiggle=2;curveFitting=1;fontFamily=Architects Daughter;fontSource=https%3A%2F%2Ffonts.googleapis.com%2Fcss%3Ffamily%3DArchitects%2BDaughter;fontSize=20;" parent="Y6TcZ-EqyhL7VvHh9IKG-1" vertex="1">
          <mxGeometry x="232" y="220" width="120" height="81" as="geometry" />
        </mxCell>
        <mxCell id="IVwbU-JVH3mQhV7LAEjL-2" value="RabbitMQ" style="rounded=0;whiteSpace=wrap;html=1;sketch=1;hachureGap=4;jiggle=2;curveFitting=1;fontFamily=Architects Daughter;fontSource=https%3A%2F%2Ffonts.googleapis.com%2Fcss%3Ffamily%3DArchitects%2BDaughter;fontSize=20;" parent="Y6TcZ-EqyhL7VvHh9IKG-1" vertex="1">
          <mxGeometry x="45" y="218" width="120" height="81" as="geometry" />
        </mxCell>
        <mxCell id="Y6TcZ-EqyhL7VvHh9IKG-7" value="FrontEnd Apps" style="swimlane;whiteSpace=wrap;html=1;sketch=1;hachureGap=4;jiggle=2;curveFitting=1;fontFamily=Architects Daughter;fontSource=https%3A%2F%2Ffonts.googleapis.com%2Fcss%3Ffamily%3DArchitects%2BDaughter;fontSize=20;" parent="1" vertex="1">
          <mxGeometry x="713" y="571" width="574" height="200" as="geometry" />
        </mxCell>
        <mxCell id="Y6TcZ-EqyhL7VvHh9IKG-8" value="UI for viewing / renting scooters" style="rounded=0;whiteSpace=wrap;html=1;sketch=1;hachureGap=4;jiggle=2;curveFitting=1;fontFamily=Architects Daughter;fontSource=https%3A%2F%2Ffonts.googleapis.com%2Fcss%3Ffamily%3DArchitects%2BDaughter;fontSize=20;" parent="Y6TcZ-EqyhL7VvHh9IKG-7" vertex="1">
          <mxGeometry x="225" y="60" width="120" height="106" as="geometry" />
        </mxCell>
      </root>
    </mxGraphModel>
  </diagram>
</mxfile>
